<?xml version="1.0" standalone="no"?><svg xmlns="http://www.w3.org/2000/svg" viewBox="0 0 1440 320"><path fill="#a2d9ff" fill-opacity="1" d="M0,288L40,277.3C80,267,160,245,240,197.3C320,149,400,75,480,80C560,85,640,171,720,213.3C800,256,880,256,960,229.3C1040,203,1120,149,1200,154.7C1280,160,1360,224,1400,256L1440,288L1440,320L1400,320C1360,320,1280,320,1200,320C1120,320,1040,320,960,320C880,320,800,320,720,320C640,320,560,320,480,320C400,320,320,320,240,320C160,320,80,320,40,320L0,320Z"></path></svg>